<?xml version="1.0" standalone="no"?>
<!DOCTYPE svg PUBLIC "-//W3C//DTD SVG 20010904//EN"
 "http://www.w3.org/TR/2001/REC-SVG-20010904/DTD/svg10.dtd">
<svg version="1.0" xmlns="http://www.w3.org/2000/svg"
 width="2494.000000pt" height="832.000000pt" viewBox="0 0 2494.000000 832.000000"
 preserveAspectRatio="xMidYMid meet">
<metadata>
Created by potrace 1.16, written by Peter Selinger 2001-2019
</metadata>
<g transform="translate(0.000000,832.000000) scale(0.100000,-0.100000)"
fill="#000000" stroke="none">
<path d="M9190 8035 c-10 -12 -44 -15 -190 -15 -151 0 -179 -2 -184 -15 -5
-13 -26 -16 -127 -14 -77 1 -125 -3 -132 -10 -6 -6 -46 -11 -93 -11 -60 0 -85
-4 -94 -15 -9 -11 -34 -15 -95 -15 -61 0 -86 -4 -95 -15 -9 -11 -32 -15 -81
-15 -37 0 -71 -4 -74 -10 -3 -5 -33 -10 -66 -10 -44 0 -61 -4 -65 -15 -4 -10
-20 -15 -51 -15 -26 0 -51 -6 -59 -15 -10 -10 -35 -15 -69 -15 -30 0 -57 -4
-60 -10 -3 -5 -26 -10 -49 -10 -27 0 -48 -6 -56 -15 -7 -8 -25 -15 -40 -15
-15 0 -33 -7 -40 -15 -8 -9 -29 -15 -56 -15 -23 0 -46 -4 -49 -10 -3 -5 -22
-10 -41 -10 -22 0 -37 -6 -40 -15 -4 -9 -19 -15 -40 -15 -22 0 -37 -6 -40 -15
-4 -9 -19 -15 -39 -15 -19 0 -37 -4 -40 -10 -3 -5 -21 -10 -40 -10 -20 0 -35
-6 -39 -15 -3 -8 -14 -15 -24 -15 -11 0 -25 -7 -32 -15 -7 -8 -25 -15 -41 -15
-15 0 -31 -4 -34 -10 -3 -5 -14 -10 -24 -10 -10 0 -24 -7 -31 -15 -7 -8 -21
-15 -31 -15 -11 0 -19 -4 -19 -8 0 -8 -69 -42 -85 -42 -4 0 -23 -13 -42 -30
-18 -16 -39 -30 -46 -30 -7 0 -21 -11 -31 -25 -10 -14 -27 -25 -36 -25 -23 0
-55 -46 -36 -53 7 -3 24 -3 39 0 36 7 154 -16 167 -32 16 -19 -25 -91 -160
-280 -27 -38 -65 -92 -83 -120 -19 -27 -46 -63 -61 -80 -14 -16 -26 -33 -26
-37 0 -4 -6 -13 -12 -20 -7 -7 -28 -36 -47 -63 -19 -28 -48 -66 -65 -86 -17
-20 -51 -64 -76 -99 -25 -35 -52 -71 -61 -79 -13 -14 -32 -40 -64 -89 -5 -9
-23 -29 -39 -46 -15 -17 -45 -56 -66 -86 -21 -30 -46 -64 -57 -75 -10 -11 -49
-58 -88 -105 -38 -47 -74 -90 -80 -96 -5 -6 -21 -26 -35 -43 -65 -80 -128
-146 -164 -169 -36 -22 -46 -24 -113 -18 -83 7 -143 28 -143 50 0 27 -18 17
-25 -13 -3 -16 -17 -39 -31 -51 -13 -13 -24 -31 -24 -41 0 -9 -7 -22 -15 -29
-8 -7 -15 -21 -15 -31 0 -11 -4 -19 -10 -19 -5 0 -10 -8 -10 -19 0 -10 -7 -24
-15 -31 -8 -7 -15 -20 -15 -30 0 -10 -7 -23 -15 -30 -8 -7 -15 -21 -15 -31 0
-11 -4 -19 -10 -19 -5 0 -10 -13 -10 -28 0 -16 -7 -37 -15 -48 -8 -10 -15 -27
-15 -37 0 -10 -7 -20 -15 -23 -8 -4 -15 -14 -15 -24 0 -11 -4 -22 -10 -25 -5
-3 -10 -14 -10 -24 0 -10 -7 -24 -15 -31 -8 -7 -15 -22 -15 -35 0 -12 -11 -43
-25 -69 -14 -26 -25 -60 -25 -75 0 -16 -7 -31 -15 -35 -8 -3 -15 -14 -15 -24
0 -11 -7 -25 -15 -32 -8 -7 -15 -28 -15 -46 0 -19 -4 -34 -10 -34 -5 0 -10
-13 -10 -28 0 -16 -10 -41 -23 -55 -21 -25 -28 -27 -104 -27 -59 0 -84 -4 -93
-15 -7 -8 -21 -15 -31 -15 -11 0 -19 -4 -19 -10 0 -5 -8 -10 -19 -10 -21 0
-111 -86 -111 -107 0 -8 -11 -24 -25 -37 -14 -13 -25 -30 -25 -38 0 -9 -7 -21
-15 -28 -8 -7 -15 -27 -15 -46 0 -18 -4 -36 -10 -39 -5 -3 -10 -19 -10 -34 0
-16 -7 -34 -15 -41 -11 -10 -15 -36 -15 -110 0 -78 -3 -99 -15 -104 -20 -7
-20 -62 0 -70 12 -4 15 -24 15 -91 0 -64 4 -90 15 -101 9 -9 15 -34 15 -60 0
-24 5 -44 10 -44 6 0 10 -8 10 -19 0 -10 7 -24 15 -31 8 -7 15 -20 15 -29 0
-9 23 -39 50 -66 47 -47 50 -52 50 -102 0 -29 -4 -53 -10 -53 -6 0 -10 -37
-10 -90 0 -71 -3 -92 -15 -96 -12 -5 -15 -29 -15 -131 0 -97 -3 -128 -15 -139
-11 -11 -15 -37 -15 -93 0 -74 -1 -78 -33 -109 -18 -18 -39 -32 -46 -32 -17 0
-111 -97 -111 -114 0 -7 -11 -23 -25 -36 -14 -13 -25 -31 -25 -41 0 -9 -7 -22
-15 -29 -8 -7 -13 -16 -10 -20 3 -5 -2 -15 -10 -23 -8 -9 -15 -22 -15 -30 0
-8 -9 -22 -20 -32 -20 -18 -60 -93 -60 -112 0 -6 -7 -13 -15 -17 -8 -3 -15
-14 -15 -25 0 -11 -4 -23 -10 -26 -5 -3 -10 -14 -10 -24 0 -10 -7 -24 -15 -31
-11 -9 -15 -32 -15 -81 l0 -68 47 -45 c41 -39 54 -46 89 -46 22 0 44 -4 50
-10 14 -14 1158 -14 1162 0 2 5 18 10 36 10 23 0 41 9 61 30 16 17 35 30 42
30 21 0 73 58 73 80 0 14 7 20 24 20 13 0 26 7 30 15 9 26 88 20 115 -8 19
-21 20 -25 6 -37 -8 -7 -15 -25 -15 -40 0 -15 -7 -33 -15 -40 -9 -7 -14 -26
-13 -43 1 -17 -3 -32 -10 -35 -6 -2 -12 -18 -12 -37 0 -18 -7 -38 -15 -45 -11
-9 -15 -32 -15 -81 0 -37 -4 -71 -10 -74 -6 -4 -10 -65 -10 -151 0 -89 4 -144
10 -144 6 0 10 -31 10 -74 0 -53 4 -77 15 -86 8 -7 15 -23 15 -35 0 -19 10
-27 48 -41 26 -9 51 -21 57 -26 5 -4 15 -8 22 -8 26 0 149 -84 211 -144 69
-67 134 -159 195 -276 21 -41 43 -83 49 -93 9 -17 14 -14 57 26 101 95 234
137 427 137 113 0 126 -2 174 -27 76 -39 128 -97 170 -188 40 -87 66 -188 76
-303 5 -56 10 -75 24 -82 28 -15 86 -12 100 5 7 9 29 15 55 15 26 0 48 6 55
15 7 8 27 15 45 15 20 0 35 6 39 15 4 11 13 14 29 10 15 -4 30 -1 40 9 8 9 24
16 35 16 11 0 22 7 26 15 3 8 14 15 25 15 11 0 23 5 26 10 3 6 15 10 26 10 11
0 22 7 25 15 4 8 14 15 23 15 9 0 35 18 56 40 21 22 46 40 54 40 19 0 291 274
291 293 0 7 11 24 25 37 14 13 25 32 25 42 0 10 7 21 15 24 8 4 15 16 15 29 0
13 7 25 15 29 8 3 15 14 15 25 0 11 5 23 10 26 6 3 10 14 10 24 0 10 7 24 15
31 8 7 15 20 15 30 0 10 7 20 15 24 9 3 15 18 15 40 0 19 5 38 10 41 5 3 10
26 10 49 0 27 6 48 15 56 11 9 15 33 15 85 0 56 4 74 15 79 12 4 15 28 15 124
0 94 -3 122 -15 132 -11 9 -15 33 -15 85 0 52 -4 76 -15 85 -9 8 -15 29 -15
56 0 23 -4 46 -10 49 -5 3 -10 19 -10 34 0 16 -7 34 -15 41 -8 7 -15 19 -15
28 0 8 -7 24 -16 33 -15 17 -15 20 0 44 16 25 46 34 46 15 0 -5 9 -10 20 -10
11 0 45 -25 76 -55 30 -30 59 -53 63 -50 4 2 21 -9 36 -25 20 -21 38 -30 61
-30 18 0 34 -5 36 -11 5 -14 7571 -13 7576 1 2 6 18 10 37 10 18 0 38 7 45 15
7 8 19 15 26 15 8 0 43 29 78 65 35 36 71 65 81 65 9 0 23 7 31 15 20 19 24
19 53 -6 18 -15 21 -23 13 -31 -7 -7 -12 -27 -12 -45 0 -21 -6 -36 -15 -39 -9
-4 -15 -19 -15 -39 0 -18 -7 -38 -15 -45 -8 -7 -15 -25 -15 -41 0 -15 -4 -31
-10 -34 -5 -3 -10 -40 -10 -81 0 -57 -4 -76 -15 -80 -12 -5 -15 -31 -15 -144
0 -110 3 -140 15 -150 11 -9 15 -35 15 -105 0 -89 1 -95 33 -141 58 -85 138
-226 172 -304 19 -41 38 -76 43 -78 6 -2 36 21 67 50 102 95 243 155 428 183
55 8 102 15 104 15 11 0 -3 28 -41 77 -102 136 -146 267 -146 438 0 126 17
201 75 320 73 152 203 273 365 338 161 65 372 63 533 -5 155 -65 299 -207 367
-360 171 -388 -33 -844 -435 -970 -33 -10 -100 -21 -150 -25 -49 -3 -93 -10
-96 -16 -4 -5 6 -35 21 -66 46 -91 65 -143 90 -246 16 -67 42 -294 35 -305
-10 -17 34 -30 100 -30 49 0 67 4 71 15 4 10 21 15 54 15 33 0 50 5 54 15 3 9
18 15 39 15 19 0 40 6 46 14 6 7 21 11 34 9 14 -3 29 2 36 11 8 9 22 16 33 16
10 0 21 7 24 15 4 8 16 15 29 15 13 0 25 7 29 15 3 8 11 12 19 9 8 -3 20 2 27
11 7 8 19 15 28 15 8 0 32 18 53 40 21 22 44 40 51 40 18 0 298 281 298 299 0
8 11 24 25 37 14 13 25 32 25 42 0 11 7 22 15 26 8 3 15 14 15 25 0 11 5 23
10 26 6 3 10 14 10 24 0 10 7 24 15 31 8 7 15 19 15 27 0 8 7 21 15 30 8 8 13
18 10 23 -3 4 2 13 10 20 8 7 15 27 15 45 0 20 6 35 15 39 11 4 15 20 15 55 0
30 5 51 12 53 9 3 12 25 10 70 -2 49 1 69 12 81 23 22 23 259 1 277 -11 9 -15
32 -15 81 0 37 -4 71 -10 74 -5 3 -10 26 -10 49 0 27 -6 48 -15 56 -8 7 -15
28 -15 46 0 19 -4 34 -10 34 -5 0 -10 8 -10 19 0 10 -7 24 -15 31 -22 18 -18
49 8 71 39 33 65 24 135 -46 35 -36 70 -65 76 -65 7 0 26 -13 42 -30 24 -24
37 -29 76 -30 25 0 48 -5 50 -10 4 -14 1582 -14 1586 0 2 6 23 10 47 10 26 0
47 6 55 15 7 8 20 15 28 15 22 0 102 80 102 101 0 9 7 22 15 29 8 7 15 20 15
30 0 10 7 20 15 24 12 4 15 27 15 114 0 85 -3 112 -15 122 -11 9 -15 34 -15
94 0 51 -5 87 -12 94 -7 7 -13 30 -14 53 -1 22 -6 45 -13 52 -6 6 -11 24 -11
41 0 21 -11 40 -42 70 l-43 40 -2 119 c-1 70 -7 124 -13 132 -6 8 -10 24 -8
37 2 19 10 24 41 26 20 2 37 7 37 13 0 5 14 9 31 9 23 0 41 11 75 45 l44 46 0
134 c0 78 -4 136 -10 140 -5 3 -10 28 -10 55 0 33 -5 50 -15 54 -9 3 -15 19
-15 41 0 19 -4 35 -8 35 -12 0 -42 73 -42 104 0 14 -7 29 -15 32 -8 4 -15 15
-15 26 0 11 -11 29 -25 40 -14 11 -25 27 -25 36 0 9 -12 28 -25 41 -14 13 -25
30 -25 39 0 19 -64 82 -84 82 -8 0 -18 4 -21 10 -3 6 -15 10 -26 10 -11 0 -22
7 -25 15 -7 17 -74 21 -74 5 0 -5 -8 -10 -19 -10 -10 0 -24 -7 -31 -15 -7 -8
-19 -15 -26 -15 -8 0 -31 -18 -53 -40 -30 -31 -46 -40 -72 -40 -30 0 -47 14
-142 110 -60 61 -112 108 -117 105 -5 -3 -40 26 -77 65 -37 38 -75 70 -85 70
-9 0 -25 11 -36 25 -11 14 -27 25 -36 25 -9 0 -33 18 -55 40 -21 22 -45 40
-54 40 -8 0 -20 7 -27 15 -7 8 -21 15 -30 15 -10 0 -27 11 -38 25 -11 14 -27
25 -35 25 -8 0 -20 7 -27 15 -7 8 -20 15 -30 15 -10 0 -23 7 -30 15 -7 8 -20
15 -29 15 -9 0 -25 11 -35 25 -10 14 -27 25 -37 25 -10 0 -21 4 -24 10 -3 6
-15 10 -26 10 -11 0 -22 7 -25 15 -4 9 -19 15 -39 15 -18 0 -38 7 -45 15 -7 8
-18 15 -25 15 -16 0 -79 32 -83 43 -2 4 -12 7 -22 7 -9 0 -23 7 -30 15 -7 8
-28 15 -46 15 -19 0 -34 5 -34 10 0 6 -8 10 -19 10 -10 0 -24 7 -31 15 -7 8
-25 15 -40 15 -15 0 -33 7 -40 15 -7 8 -28 15 -46 15 -19 0 -34 5 -34 10 0 6
-8 10 -19 10 -10 0 -24 7 -31 15 -7 8 -27 15 -45 15 -20 0 -35 6 -39 15 -3 9
-18 15 -40 15 -19 0 -38 4 -41 10 -3 6 -19 10 -34 10 -16 0 -34 7 -41 15 -7 9
-29 15 -55 15 -26 0 -48 6 -55 15 -7 8 -25 15 -41 15 -15 0 -31 5 -34 10 -3 6
-28 10 -55 10 -33 0 -50 5 -54 15 -3 9 -18 15 -40 15 -21 0 -36 6 -40 15 -4
11 -20 15 -56 15 -27 0 -50 5 -50 10 0 6 -22 10 -49 10 -34 0 -51 4 -55 15 -4
10 -19 15 -49 15 -27 0 -49 6 -57 15 -8 10 -31 15 -71 15 -32 0 -61 5 -64 10
-3 6 -30 10 -60 10 -34 0 -59 5 -69 15 -9 10 -34 15 -71 15 -40 0 -57 4 -61
15 -5 11 -22 15 -70 15 -36 0 -64 4 -64 10 0 6 -35 10 -84 10 -62 0 -89 4
-100 15 -10 11 -36 15 -86 15 -54 0 -72 4 -76 15 -4 11 -21 15 -55 15 -27 0
-49 5 -49 10 0 6 -9 10 -19 10 -11 0 -26 7 -35 15 -8 8 -28 15 -44 15 -19 0
-35 8 -48 25 -10 14 -26 25 -36 25 -9 0 -23 9 -32 21 -12 17 -21 20 -53 15
-34 -6 -95 0 -203 20 -34 6 -221 94 -291 137 -19 12 -55 39 -79 60 -24 20 -48
37 -53 37 -9 0 -28 14 -115 86 -20 17 -53 41 -72 54 -19 13 -49 35 -66 49 -17
14 -44 35 -59 46 -36 25 -129 99 -175 139 -20 17 -51 42 -70 56 -19 14 -74 59
-123 100 -91 77 -158 132 -308 254 -46 37 -109 90 -139 118 -30 27 -113 102
-185 166 -187 168 -306 289 -349 355 -24 36 -13 84 23 105 26 14 27 17 12 34
-8 10 -23 18 -32 18 -9 0 -19 7 -23 15 -3 8 -14 15 -24 15 -11 0 -25 6 -32 14
-6 8 -18 12 -26 9 -7 -3 -17 2 -20 11 -4 10 -18 16 -39 16 -18 0 -38 7 -45 15
-7 8 -21 15 -31 15 -10 0 -21 5 -24 10 -3 6 -19 10 -34 10 -16 0 -34 7 -41 15
-7 8 -20 15 -30 15 -10 0 -20 7 -24 15 -3 9 -19 15 -41 15 -19 0 -35 5 -35 10
0 6 -18 10 -39 10 -25 0 -41 5 -45 15 -3 9 -18 15 -40 15 -21 0 -36 6 -40 15
-3 9 -18 15 -40 15 -19 0 -36 5 -38 12 -3 7 -20 11 -45 10 -26 -2 -46 3 -56
13 -9 8 -29 15 -45 15 -16 0 -35 7 -42 15 -8 9 -29 15 -56 15 -23 0 -46 5 -49
10 -3 6 -24 10 -45 10 -21 0 -45 7 -54 15 -8 9 -33 15 -59 15 -27 0 -49 6 -57
15 -8 10 -31 15 -66 15 -29 0 -56 5 -59 10 -3 6 -32 10 -64 10 -40 0 -63 5
-71 15 -8 10 -31 15 -70 15 -42 0 -59 4 -64 15 -4 12 -25 15 -96 15 -53 0 -90
4 -90 10 0 6 -32 10 -75 10 -58 0 -77 4 -81 15 -5 12 -26 15 -104 15 -74 0
-100 4 -110 15 -10 12 -37 15 -126 15 -69 0 -114 4 -114 10 0 6 -61 10 -164
10 -133 0 -166 3 -176 15 -11 13 -71 15 -430 15 -362 0 -419 2 -424 15 -5 13
-118 15 -934 15 -814 0 -931 -2 -942 -15z m-2292 -4051 c12 -8 22 -26 22 -39
0 -57 31 -55 -881 -55 -831 0 -836 0 -863 21 -30 24 -33 45 -9 71 15 17 55 18
862 18 750 0 849 -2 869 -16z m12126 -63 c28 -29 28 -30 10 -55 l-19 -25 -851
-1 -851 0 -23 25 c-19 20 -22 30 -14 43 26 42 23 42 890 42 l830 0 28 -29z
m-3842 -141 c51 -15 88 -61 88 -112 0 -32 -7 -47 -34 -74 l-34 -34 -3390 0
c-3355 0 -3390 0 -3414 20 -75 59 -55 166 37 198 41 14 6695 16 6747 2z
m-7995 -1609 c146 -48 255 -129 361 -268 71 -91 132 -281 132 -407 0 -130 -52
-290 -130 -406 -187 -275 -560 -377 -868 -239 -245 110 -412 373 -412 646 1
213 99 417 264 549 98 78 160 108 286 140 81 20 287 12 367 -15z"/>
<path d="M6879 1837 c-103 -29 -184 -101 -231 -203 -18 -39 -23 -67 -23 -139
0 -82 3 -97 33 -157 57 -116 163 -188 289 -196 81 -5 148 9 203 44 55 34 113
96 140 150 22 43 25 61 25 159 0 92 -4 117 -22 155 -30 63 -108 139 -172 168
-65 30 -173 38 -242 19z"/>
<path d="M17664 1826 c-92 -36 -152 -91 -192 -176 -21 -44 -27 -73 -30 -145
-3 -83 -1 -95 27 -155 34 -73 102 -146 171 -181 38 -20 60 -23 145 -23 83 0
108 4 148 22 63 31 113 76 152 137 39 63 55 117 55 190 0 74 -16 127 -56 190
-66 104 -154 154 -282 161 -64 4 -87 0 -138 -20z"/>
</g>
</svg>
